HIERARCHY
ROOT Spine
{
    OFFSET 0.0 0.0 -0.0
    CHANNELS 6 Xposition Yposition Zposition Zrotation Xrotation Yrotation
    JOINT ShoulderCenter
    {
        OFFSET 0.0 0.21187366545200348 0.0
        CHANNELS 3 Zrotation Xrotation Yrotation
        JOINT LeftShoulder
        {
            OFFSET 0.17135795950889587 0.0 0.0
            CHANNELS 3 Zrotation Xrotation Yrotation
            JOINT LeftElbow
            {
                OFFSET 0.23362284898757935 0.0 0.0
                CHANNELS 3 Zrotation Xrotation Yrotation
                JOINT LeftHand
                {
                    OFFSET 0.27495038509368896 0.0 0.0
                    CHANNELS 3 Zrotation Xrotation Yrotation
                    End Site
                    {
                        OFFSET 0.10998015850782394 0.0 0.0
                    }
                }
            }
        }
        JOINT RightShoulder
        {
            OFFSET -0.17135795950889587 0.0 0.0
            CHANNELS 3 Zrotation Xrotation Yrotation
            JOINT RightElbow
            {
                OFFSET -0.23362284898757935 0.0 0.0
                CHANNELS 3 Zrotation Xrotation Yrotation
                JOINT RightHand
                {
                    OFFSET -0.27495038509368896 0.0 0.0
                    CHANNELS 3 Zrotation Xrotation Yrotation
                    End Site
                    {
                        OFFSET -0.10998015850782394 0.0 0.0
                    }
                }
            }
        }
        End Site
        {
            OFFSET 0.0 0.08474946767091751 0.0
        }
    }
    JOINT LeftHip
    {
        OFFSET 0.20391616794428707 -0.20391616794428707 0.0
        CHANNELS 3 Zrotation Xrotation Yrotation
        JOINT LeftKnee
        {
            OFFSET 0.0 -0.2868530750274658 0.0
            CHANNELS 3 Zrotation Xrotation Yrotation
            JOINT LeftFoot
            {
                OFFSET 0.0 -0.3977442979812622 0.0
                CHANNELS 3 Zrotation Xrotation Yrotation
                End Site
                {
                    OFFSET 0.0 0.0 0.15909773111343384
                }
            }
        }
    }
    JOINT RightHip
    {
        OFFSET -0.20391616794428707 -0.20391616794428707 0.0
        CHANNELS 3 Zrotation Xrotation Yrotation
        JOINT RightKnee
        {
            OFFSET 0.0 -0.2868530750274658 0.0
            CHANNELS 3 Zrotation Xrotation Yrotation
            JOINT RightFoot
            {
                OFFSET 0.0 -0.3977442979812622 0.0
                CHANNELS 3 Zrotation Xrotation Yrotation
                End Site
                {
                    OFFSET 0.0 0.0 0.15909773111343384
                }
            }
        }
    }
}
MOTION
Frames: 7
Frame Time: 0.03333333333333333
-0.2412358969449997 0.20518529415130615 3.61570405960083 -1.9942387980989296 -14.644152611302271 -161.2195895352386 7.651862061031192e-07 4.1362739645968045e-07 3.6989097543262344 92.68329557660799 -32.96509439212094 178.28032207527912 4.571002937929343e-06 -1.6459433401960587e-07 22.94691367936052 5.517382872562698e-33 -3.975693351829396e-16 1.5902773407317584e-15 -99.22877472077982 -38.68288407420541 -173.6997917853074 1.6885266683980127e-06 3.634172593818223e-06 -21.951115736003818 6.3611093629270335e-15 -3.1805546814635164e-15 6.3611093629270335e-15 -4.5255084923571545 10.379384421376619 -49.280936540096505 1.9059737065848867 -11.346387541043688 26.590621613267 -4.969616689786745e-16 1.5902773407317584e-15 1.987846675914698e-16 -10.503851465293025 8.799061866013794 64.56710739313773 -0.10385705177076081 -15.020993729097537 -38.533498052613716 1.5902773407317584e-15 7.448466877959642e-32 5.367186024969684e-15
-0.24104300141334534 0.2050081044435501 3.6160149574279785 -2.0224642978856893 -14.538665388689306 -161.2400084548142 5.291498257632928e-07 -3.4771066324185883e-07 3.5814880033504277 92.54477178002004 -33.615488986164436 178.22012684077941 3.0029079223279832e-06 1.1835590897334205e-07 22.980514027751106 0.0 0.0 0.0 -99.36731937936035 -36.38095472793775 -173.81674986741137 5.734168892734381e-07 4.540109066924624e-06 -22.62254053625298 0.0 -3.1805546814635168e-15 0.0 -4.526514583371002 10.479035053068284 -49.32078659576428 1.2933097261504263 -11.282922140777528 25.688974316489062 2.4848083448933725e-16 8.620910738379216e-34 3.975693351829396e-16 -10.68551018562909 8.792818217103985 65.0954711849262 0.7828983708626761 -15.484059371409058 -38.11890355902015 1.1034765745125397e-32 1.5902773407317588e-15 -7.951386703658794e-16
-0.24055519700050354 0.20526030659675598 3.6161649227142334 -1.9819365462255376 -14.512971016631354 -161.3497519258367 3.1807235699841723e-07 -1.4707799860988623e-10 3.6823701622553564 92.63540026660456 -32.944705100617334 178.55664426173288 1.8486550751265187e-06 2.7100555000276133e-06 21.9678419484816 6.3611093629270335e-15 3.975693351829396e-16 -2.2069531490250793e-32 -98.88441036074283 -39.00138613467693 -173.487696093087 -1.0939005216166702e-06 2.0063659772312558e-06 -22.720615150831755 6.3611093629270335e-15 -3.1805546814635168e-15 1.7655625192200634e-31 -4.3535192886932705 10.473674008332893 -49.71733460668661 1.2179680576407537 -11.482666473713188 26.10033905348457 -8.945310041616142e-16 3.103527865816518e-33 -3.975693351829396e-16 -10.671379809310244 8.527956231474153 64.78128417477124 1.025427975679491 -15.475514487524917 -37.99179159130621 2.3854160110976384e-15 2.0690185772110117e-32 9.939233379573492e-16
-0.24053220450878143 0.20523959398269653 3.6161630153656006 -1.974781063526955 -14.506336133164778 -161.46858314554075 -1.664162371016999e-07 -1.0032719586386744e-06 3.764980189608023 92.56276507794287 -34.36663860846085 178.6266821506905 -7.180359193294265e-07 -6.694165381587439e-07 22.408950972492928 -6.361109362927033e-15 0.0 0.0 -99.1478989954183 -36.30548244676075 -173.58350436107708 6.980380715247848e-06 2.655757201324795e-06 -23.2077642889421 -1.2722218725854067e-14 7.062250076880254e-31 -6.3611093629270335e-15 -4.400671214166864 10.50894832205002 -49.74055280122516 1.2766365533326363 -11.300318565405322 25.713655592707536 5.963540027744093e-16 -1.5902773407317582e-15 -1.9878466759146977e-16 -10.708592780078714 8.504162281380014 64.98429923185529 -4.207375301080426 -8.71297133654478 -32.030642157260445 -9.103681739728452e-32 1.5902773407317584e-15 6.5598940305185035e-15
-0.24033699929714203 0.20524729788303375 3.616244077682495 -1.9933084165448323 -14.413044377748696 -161.57150167913966 5.952826067712151e-07 1.5784530907741234e-06 3.873329923733606 92.5495993550867 -33.26316828898523 178.57728730895735 -4.2996630491118825e-07 -3.025940580367399e-07 22.31165803242027 6.3611093629270335e-15 0.0 0.0 -99.160481895808 -35.42103883056639 -173.52474018998709 -6.606931852163102e-07 -5.651639609377934e-06 -22.720355551824547 8.827812596100317e-32 3.1805546814635164e-15 -3.1805546814635164e-15 -4.2977731602879885 10.67463743561409 -50.19941865931153 1.3819997445111138 -11.643532966972186 26.442975456955693 -6.957463365701443e-16 1.2069275033730902e-33 -1.987846675914698e-16 -10.841016389588509 8.525997959033466 65.50546581579324 1.504097185813433 -15.691943650670373 -37.74485651977288 7.951386703658792e-16 1.5902773407317584e-15 2.5842006786891076e-15
-0.24036629498004913 0.20505739748477936 3.6166820526123047 -1.9343836637989318 -14.225602851060863 -161.55119328156871 -5.362296599064301e-07 1.0050367965008889e-06 3.8598928542053326 92.51062243925058 -33.45666260000138 178.49420829747154 1.9365021823953544e-06 2.711810811692053e-06 21.605812707143908 0.0 0.0 -1.5902773407317584e-15 -99.10410967868533 -34.94083852372353 -173.56378922050382 4.718608031989833e-06 2.3284231037935437e-06 -22.88498342944214 6.3611093629270335e-15 3.1805546814635168e-15 3.1805546814635168e-15 -4.2758310079303286 10.814267683548085 -50.1605877224508 1.6810046530159712 -11.492188857095556 26.386242360194554 2.9817700138720465e-16 1.551763932908259e-33 5.963540027744093e-16 -10.802560643099733 8.62942586879872 65.66924524847808 -2.4257459209206034 -10.599928648707648 -33.857972735473965 0.0 0.0 -1.9878466759146984e-15
-0.2402866929769516 0.20504769682884216 3.616731882095337 -1.921288706323204 -14.219324928073487 -161.58054463397238 -1.2844257390507632e-07 -6.919840000983626e-07 3.9101389222831306 92.54416766885264 -33.34056655260313 178.43726558417026 -3.6764329389538263e-06 -2.600800621147376e-07 21.22710155176659 0.0 0.0 -1.5902773407317584e-15 -99.15101733505193 -34.89017086526276 -173.5871759633115 4.2147258545926675e-07 1.0076816724599632e-05 -23.835333930317606 0.0 0.0 3.180554681463516e-15 -4.238628924126283 10.804752508491195 -50.261406300944564 1.5706278293202611 -11.443236757558031 26.197243599137636 -1.5405811738338909e-15 1.5902773407317584e-15 2.1379858631180455e-32 -10.812858701769674 8.637610252556405 65.79186473613018 1.644208747816849 -14.598561677836889 -35.57839957544541 -7.951386703658792e-16 -5.517382872562698e-33 7.951386703658792e-16
